<?xml version="1.0" standalone="no"?><!DOCTYPE svg PUBLIC "-//W3C//DTD SVG 1.1//EN" "http://www.w3.org/Graphics/SVG/1.1/DTD/svg11.dtd"><svg t="1675476696828" class="icon" viewBox="0 0 1024 1024" version="1.1" xmlns="http://www.w3.org/2000/svg" p-id="2878" width="128" height="128" xmlns:xlink="http://www.w3.org/1999/xlink"><path d="M279.537772 1023.999997c-1.123773-0.022035-2.247547-0.04407-3.37132-0.066104 1.388191-13.485281 1.608538-25.868824 1.828886-38.274402 9.717335-38.120158 22.89413-79.567567 43.584782-102.836288 0.088139-4.517129 0.154243-7.888449 0.220348-11.259769-20.271992-0.374591-32.897917 11.788604-56.783611 24.855225-30.518161 6.191771-77.760716 0.815287-99.70735-30.011362-6.522293-12.515751-13.066621-25.031503-19.588914-37.547254-17.892236-67.933207 12.912377-149.594078 22.85006-200.119813 20.492339-71.723188 37.657428-146.883801 48.939232-208.647271 5.530728-55.108969-6.081598-96.997073-31.201239-140.273368-24.32639-25.229816-30.914787-34.374247-66.831468-41.799965-13.573421 3.128938-31.509726-1.718712-44.466173 28.468927 2.027199 12.427612 4.054398 24.855225 6.059563 38.40661-24.546738-12.846273-13.793768-46.449303-10.2021-57.642968 33.426751-41.072818 64.71613-26.970563 94.8597-11.766569 31.046996 27.609571 47.418833 56.078499 60.154932 98.010673 4.495094 0.088139 7.888449 0.154243 11.237735 1.344121 6.27991-34.814942-15.776898-61.124462-18.619384-89.351007 0.330522-18.024445 0.639008-34.925116-0.176278-51.825787 3.679807-15.710794 7.315545-30.275779 9.849544-44.884834 12.956447-31.311413 28.050267-54.690308 39.662592-73.618178 41.425374-46.559477 76.658977-62.799105 125.311757-74.279222 37.216733-2.688242 59.692202 1.101739 87.742468 7.249441 32.435187 13.000516 112.840075 51.671544 112.179032 86.574625-5.795145 8.902049-11.612326 18.92787-17.451541 28.975727-0.352556 19.148218 8.329144 37.326906 23.797555 53.390256 10.113961 1.322086 19.082114 3.723877 28.050267 6.147702 15.578585 10.422448 40.499914 2.996729 49.357893 12.18523 18.090549 57.797211 12.64796 107.265278-27.807884 162.836977-11.436047 8.791875-22.872095 18.729558-35.453951 28.645206-0.242383 13.507316 6.434154 17.010845 17.49561 28.490962 5.464624 9.100361 10.929248 18.222758 16.371837 28.468927 6.456189 15.887072 11.788604 32.897917 17.098984 49.886727 11.656395 39.640558 23.334825 79.30315 34.969186 118.943708 4.517129 0.088139 7.888449 0.154243 11.237735 1.322086 18.443105-22.189017 23.092443-29.989327 30.121535-44.510243 27.675676-34.418316 63.812704-100.21415 95.564813-110.901015 35.343777 37.833706 70.687554 76.791186 106.009296 115.748666 6.500258 13.639525 16.52608 20.580479 16.129454 41.976244-12.625925 12.163195-16.98881 65.024617-17.451541 90.93751-7.866414-1.278017-16.878637-1.43226-25.890859-1.608538-13.551386 2.005164-27.102771 4.010329-40.698227 7.139267-3.195042-10.2021-7.535893-19.302462-11.876743-28.380788 12.405578-0.903426 24.78912-0.661043 37.194698-0.440695 5.707006-3.283181 11.391978-6.544328 17.07695-9.827509 14.190394-35.784472 8.946118-57.290411-12.053021-79.082802-2.247547-0.04407-4.495094-0.088139-7.888449-0.154243-0.176278 9.012222-0.330522 18.024445-1.630573 27.014632-9.144431 6.588397-26.001033 5.156137-43.937338-0.815287 1.189878-3.349286 1.255982-6.742641 1.300052-8.990188 18.46514-24.436564 10.797039-35.850577 11.17163-56.122568-38.979514-24.37046-49.688414 5.839215-77.430194 44.752625-13.925977 22.277156-27.873989 45.678086-42.967808 69.05698-13.683594 8.76984-27.367189 17.517645-42.196591 27.389224-0.088139 4.517129-0.132209 6.764675 6.566363 10.268204 11.237735 1.344121 22.453434 3.789981 33.691169 6.257876-0.154243 7.888449-1.630573 27.014632-6.346015 38.186263-9.056292 2.071269-18.134619 5.288346-27.190911 8.505423-15.997246 12.097091-39.949044 27.433293-64.121191 55.153038-6.764675-0.132209-13.749699 12.14116-54.095369 62.093992-4.693407 10.047857-34.969186 63.570322-17.297297 81.925288 13.61749-5.376485 27.23498-10.752969 40.85247-16.151489 48.740919-15.997246 96.071613-16.239628 136.241005 4.781546 17.760027 13.837838 20.866931 28.557067 20.4042 54.447925-52.795317-8.857979-109.094164-9.893613-173.457737-2.093303-14.719229 4.230677-43.100017 14.961611-70.136684 14.476846-2.115338-6.808745-5.39852-12.493717-8.681701-18.178688-10.135996-0.176278-15.820967 1.961095-30.716474 16.327767-8.990188-1.300052-17.980375-2.578069-26.970563-3.87812-36.026855-0.661043-73.199518-1.366156-110.394216-0.92546C327.066778 1013.621619 303.291258 1018.79979 279.537772 1023.999997L279.537772 1023.999997zM378.606114 967.260455c3.437425-3.327251 6.896884-6.632467 9.188501-8.835944 47.68325-19.390601 72.714753-32.457221 108.212773-3.635738 4.517129-1.035634 7.932518-2.093303 11.303839-2.049234 2.974694-38.252367 10.158031-61.785505 23.026338-87.456016-1.035634-4.517129-2.093303-9.056292-3.128938-13.573421-57.554829 4.561198-97.30556 21.858495-144.504045 76.196247-1.167843 2.225512-15.005681 18.883801-15.336202 36.886211C371.907543 964.8807 375.256828 966.070577 378.606114 967.260455L378.606114 967.260455zM250.804427 872.510929c39.838871-21.792391 37.855741-36.46755 38.516784-71.392666-1.079704-2.269582-2.181443-3.41539-3.283181-4.561198-10.135996-0.176278-20.382166 5.244276-35.343777 23.004304-9.871579-14.829403-22.189017-18.443105-40.059218-26.662076 3.701842-17.95834 6.301945-35.938716 8.880014-53.919091 2.159408 4.539163 4.318816 10.224135 6.456189 15.887072 45.325529 47.022207 70.511275-35.872611 76.570838-58.304011 1.366156-13.485281 2.754347-26.992598 2.996729-40.499914-0.859356-14.653124-1.740747-28.20451-2.600103-41.733861-8.461353-29.460492-16.966776-57.775176-26.573937-86.111895 77.848855-5.31038 154.926493-30.936822 185.400585-94.595283 0.110174-5.640902-0.947495-10.158031-1.98313-14.675159-20.271992-0.374591-40.543983-0.749182-60.815975-1.123773-11.568256 15.55655-50.393527 44.135651-86.310208 36.709933-26.838354-10.642796-50.040971-35.850577-68.770528-58.722672-2.247547-1.167843-4.495094-1.211913-7.866414-1.278017-9.100361 126.01687-65.465312 250.028576-67.977276 385.167842 1.740747 28.20451 14.741264 55.48356 36.864176 78.421759 6.698571 3.503529 13.397142 7.007058 20.073679 11.63436C233.947825 869.93286 242.938013 871.232912 250.804427 872.510929L250.804427 872.510929zM384.489398 833.289032c5.905319-14.542951-1.894991-19.192288-4.076433-23.731451-2.093303-7.932518-4.208642-15.843002-6.346015-22.651747-2.247547-0.04407-5.618867-0.110174-9.012222-0.176278-2.40179 7.844379-5.883285 13.419177-6.147702 28.050267C365.539493 821.676706 373.273699 829.697364 384.489398 833.289032L384.489398 833.289032zM485.893426 831.790667c10.290239-7.690136 19.390601-13.15476 21.814426-22.122913-4.34085-9.100361-2.181443-4.539163-11.105526-9.210535 3.547599-8.946118 5.971424-17.914271 8.373214-25.75865-10.069892-3.569633-15.622654-8.174901-33.647099-8.505423-0.04407 2.247547-0.088139 4.517129-0.154243 7.888449 4.473059 2.335686 7.778275 5.773111 11.105526 9.210535-6.896884 6.632467-9.144431 6.588397-12.802203 22.299191 4.451024 2.335686 8.924083 4.671372 12.251334 8.108797-5.729041 5.530728-6.940954 10.003787-7.051128 15.644689C479.194855 829.410912 482.544141 830.600789 485.893426 831.790667L485.893426 831.790667zM340.816477 817.842656c6.764675 0.132209 5.971424-17.914271 6.037528-22.431399 9.23257-12.229299 11.546221-15.55655 11.700465-23.444999-16.900671-0.308487-32.765708 5.023928-28.843519 36.643828C334.18401 810.945771 337.511261 814.405231 340.816477 817.842656L340.816477 817.842656zM408.507302 813.457736c7.954553-3.239112 15.887072-6.456189 22.695817-8.593562 0.110174-5.618867 0.198313-10.135996 0.264417-14.63109-10.135996-0.198313-14.741264 5.35445-30.452057 1.696678-1.057669-3.393355-2.137373-5.684972-4.362885-7.976588-3.37132-0.066104-6.764675-0.132209-10.158031 0.947495-0.066104 3.37132-0.132209 6.764675-0.198313 10.135996 2.181443 3.41539 4.362885 7.954553 6.522293 12.515751C398.459445 808.764329 404.034243 811.12205 408.507302 813.457736L408.507302 813.457736zM559.753987 798.231707c19.43467-15.402307 26.243415-17.53968 28.71131-29.901188-1.101739-1.145808-32.457221-11.876743-42.769495-1.917025-0.04407 2.247547-0.088139 4.495094-0.132209 6.764675 4.451024 2.335686 7.80031 4.649337 11.127561 6.962988-4.671372 8.924083-5.795145 8.902049-5.971424 17.914271C554.113085 798.121533 557.50644 798.187638 559.753987 798.231707L559.753987 798.231707zM418.070393 783.203991c4.561198-2.181443 7.976588-4.362885 11.391978-6.544328 4.649337-7.80031 8.174901-15.622654 11.67843-22.321226-1.057669-3.393355-2.137373-5.684972-4.362885-7.976588-6.764675-0.132209-11.369943 5.420554-14.851437 10.995352-7.954553 3.239112-15.909107 7.579962-23.885695 11.942847-0.04407 2.247547-0.088139 4.495094-0.154243 7.888449C404.651216 778.466515 411.349787 780.824236 418.070393 783.203991L418.070393 783.203991zM324.863301 766.832155c22.739886-10.841109 20.426235-8.637631 38.428645-6.037528 0.088139-4.495094 0.154243-7.888449 0.220348-11.259769-18.795662-19.500775-25.450163-25.251851-48.542606 4.737476-0.066104 3.37132-0.132209 6.764675-0.220348 11.259769C318.142695 765.598207 321.514016 765.642277 324.863301 766.832155L324.863301 766.832155zM402.690121 762.645548c30.914787-26.463763 8.615596-39.265966-5.751076-54.183508-2.269582-0.04407-5.640902-0.110174-9.012222-0.176278-0.154243 7.888449 2.115338 7.932518 8.659666 19.324496 1.079704 2.269582 1.0136 5.662937 0.947495 9.034257-1.255982 6.742641-3.635738 13.463247-6.015493 20.161818C396.013585 758.018245 399.340836 760.331897 402.690121 762.645548L402.690121 762.645548zM379.289192 748.697536c2.335686-4.473059 4.671372-8.924083 5.86125-12.295404-8.747805-13.683594-16.437941-25.097607-37.965915-17.605784-0.04407 2.247547-0.088139 4.495094-1.278017 7.866414 5.618867 1.233947 11.2157 3.591668 15.666724 5.927354 3.305216 3.437425 6.610432 7.998623 8.76984 12.559821C373.692359 746.339815 377.041645 747.529693 379.289192 748.697536L379.289192 748.697536zM531.659651 733.493542c6.83078-3.261146 12.493717-5.39852 18.156653-7.557927 27.146841-6.257876 54.315717-12.515751 81.462558-18.773627 0.5068-27.036667 0.46273-85.62713-23.136512-89.439146-9.188501 8.835944-10.334309 11.083491-15.04975 22.255121-12.69203 15.534515-26.485798 31.046996-40.301601 46.581511-9.144431 6.588397-22.916165 20.977104-44.598382 35.233603-0.022035 1.123773-0.066104 3.37132-1.233947 5.618867C512.511433 733.140986 528.288331 733.427438 531.659651 733.493542L531.659651 733.493542zM447.508851 715.028402c11.590291-17.804097 25.185746-22.078843 22.012739-33.382682-4.517129 1.035634-9.034257 2.093303-13.573421 3.128938 0.572904-31.531761-6.32398-23.775521-26.816319-11.766569 3.613703-12.317438 2.556034-16.856602 0.396626-21.395765-3.37132-0.066104-7.888449-0.154243-12.405578 0.903426-0.022035 1.123773-1.167843 2.225512-2.313651 3.327251-1.0136-6.78671-2.005164-13.551386-4.142537-19.214323-2.247547-0.04407-5.618867-0.110174-9.012222-0.176278-3.591668 11.193665-7.183336 22.38733-11.898778 33.580995-0.04407 2.247547-0.088139 4.495094-0.154243 7.888449 12.251334 8.108797 18.112584-4.164572 24.877259-5.178172-0.110174 5.618867-1.366156 12.361508-2.600103 19.104149 12.295404 5.86125 18.090549-3.040799 26.045102-7.403684 0.96953 7.910484 0.837321 15.798933 0.661043 24.78912C441.956088 710.423134 445.305373 712.736786 447.508851 715.028402L447.508851 715.028402zM510.83679 701.565155c35.387846-25.251851 95.234291-92.876571 81.154071-123.548975-2.247547-0.04407-5.640902-0.110174-9.012222-0.176278-13.000516 32.435187-42.020313 79.215011-80.933723 111.165433-0.066104 3.37132-0.132209 6.764675-0.198313 10.135996C505.261992 699.207435 508.611278 700.397312 510.83679 701.565155L510.83679 701.565155zM358.532435 652.559819c15.159924-27.896023 30.14357-45.634016 26.023068-67.11792-10.135996-0.176278-14.609055-1.388191-33.867447 3.87812-0.352556 19.148218-0.727148 39.42021-1.101739 59.692202C352.935603 650.180063 356.306923 651.369941 358.532435 652.559819L358.532435 652.559819zM493.980188 639.272851c10.356344-12.207265 17.275262-19.963505 19.677053-28.931658-3.37132-0.066104-6.764675-0.132209-10.135996-0.198313-1.123773-0.022035-3.393355 1.057669-5.662937 2.159408 0.154243-7.888449-0.837321-15.798933-1.806851-23.687382-6.764675-0.132209-8.946118-3.547599-26.089172 9.651231 0.264417-14.653124 2.688242-23.599242-15.446376-18.310897-2.291616 2.203477-4.583233 4.428989-7.998623 6.610432-1.0136-5.640902-3.173007-11.325874-5.31038-16.98881-3.349286-1.189878-6.742641-1.255982-10.113961-1.322086-0.220348 12.383543-0.46273 24.767085-1.806851 37.150628 6.632467 6.874849 11.149595 5.839215 20.338096-2.996729 0.991565 6.78671 1.98313 14.697194 1.828886 22.563608 12.229299 8.108797 22.695817-8.593562 28.402823-13.000516 2.115338 7.932518 3.062834 16.966776 4.032364 25.978998C487.237547 638.038903 490.608868 638.105008 493.980188 639.272851L493.980188 639.272851zM531.307095 570.127731c12.625925-12.163195 22.85006-16.482011 23.070408-28.865553-5.618867-0.110174-11.259769-0.198313-16.922706 0.815287-2.137373-6.808745-4.252711-13.595455-7.513858-20.426235-9.012222-0.176278-10.135996-0.198313-24.943364 8.549492 0.396626-21.395765 1.498365-20.249957-19.963505-17.275262-1.035634-4.517129-2.093303-9.056292-3.150973-12.449647-3.37132-0.066104-6.764675-0.132209-10.158031 0.947495-1.344121 11.237735-2.666208 22.475469-4.010329 33.713204-0.154243 7.888449 19.192288-1.894991 21.439835-1.850921 2.159408 4.539163 4.318816 10.224135 6.456189 15.887072 13.507316 0.242383 14.675159-1.98313 21.505939-5.244276 1.0136 5.662937 2.027199 12.427612 3.018764 19.214323C524.630558 565.500429 527.957809 567.81408 531.307095 570.127731L531.307095 570.127731zM584.300725 506.887931c12.559821-8.791875 20.866931-31.15717 18.707523-36.842141-6.764675-0.132209-9.034257 0.96953-15.909107 7.601997-5.288346-18.134619-1.762782-27.080737-25.692546-11.744534-1.145808 1.101739-2.313651 3.327251-3.481494 5.574798-5.090033-29.394388-2.820451-30.474092-32.369082-16.371837-2.159408-5.662937-4.318816-10.224135-7.601997-14.785333-2.247547-0.04407-4.517129-0.088139-7.888449-0.154243 0.881391 13.529351 1.762782 27.080737 1.498365 40.588053 10.047857 4.693407 22.607678-4.076433 26.001033-5.156137 3.283181 5.684972 5.420554 11.369943 7.557927 18.178688 16.900671 0.308487 15.887072-6.456189 24.965398-9.673266C572.1816 492.014459 579.849701 504.552245 584.300725 506.887931L584.300725 506.887931zM340.948686 446.049921c31.752109-10.686865 41.006714-24.039938 50.305388-39.640558 0.5068-27.036667-6.434154-17.010845-23.643312-0.440695-10.224135 4.318816-20.426235 8.637631-31.774143 12.934412-4.428989-4.583233-1.035634-4.517129-12.251334-8.108797 0.04407-2.247547-1.035634-4.517129-2.137373-5.684972-2.247547-0.04407-4.495094-0.088139-7.888449-0.154243-1.079704-3.393355-3.261146-6.808745-5.442589-10.24617-3.37132-0.066104-6.78671 1.0136-10.180065 2.071269-1.057669-3.393355-2.137373-5.684972-3.217077-7.954553-2.247547-1.167843-4.495094-1.211913-7.866414-1.278017 0.110174-5.640902 2.467895-11.2157-2.049234-11.303839 0.088139-4.517129-0.96953-7.910484-2.049234-11.303839-1.101739-1.145808-2.225512-1.167843-3.349286-1.189878 1.211913-4.473059 1.278017-7.866414 1.344121-11.237735-1.123773-1.145808-2.225512-2.291616-3.327251-3.437425 8.020658-7.734206 3.591668-11.193665 1.388191-14.63109 3.503529-6.698571 7.007058-13.397142 10.510587-20.095713 2.269582-1.079704 4.539163-2.181443 5.684972-2.159408-0.815287-16.922706 4.781546-14.564985-17.826132-10.466517-20.646583 19.897401-38.054054 46.625581-21.968669 90.849371 13.11069 21.638148 38.626958 43.518678 59.86848 51.803753C324.070049 444.595626 333.082272 444.771904 340.948686 446.049921L340.948686 446.049921zM346.567553 386.445859c26.089172-9.651231 34.352212-29.791014 26.750215-45.70012-2.247547-0.04407-4.495094-0.088139-7.888449-0.154243-1.255982 6.742641-9.452918 23.489069-29.63677 18.597349-11.039422-11.480117-7.403684-26.045102-7.249441-33.933551-2.247547-0.04407-5.640902-0.110174-9.012222-0.176278-2.335686 4.473059-4.671372 8.924083-8.130831 13.375108-0.110174 5.640902-0.220348 11.259769-1.43226 16.878637 2.159408 5.662937 4.274746 12.471682 6.412119 19.280427C326.42777 378.182819 336.519696 381.752452 346.567553 386.445859L346.567553 386.445859zM476.528648 364.058529c14.917542-14.366672 15.424341-42.527113-3.723877-42.879669-1.167843 2.225512-3.459459 4.451024-5.773111 7.778275 0.92546 10.158031 0.749182 20.294026 0.550869 31.553796C470.95385 361.700808 474.303135 362.890686 476.528648 364.058529L476.528648 364.058529zM516.014962 362.538129c7.117232-20.139783 15.446376-43.650886-8.196936-44.091582C506.562044 325.189188 494.663266 358.770183 516.014962 362.538129L516.014962 362.538129zM549.882409 358.660009c8.196936-16.746428 5.993458-19.038044 8.439318-30.253744-3.305216-3.437425-1.0136-5.662937-14.542951-5.905319C542.522794 329.221552 533.091911 352.71062 549.882409 358.660009L549.882409 358.660009zM437.240646 356.566706c4.605268-5.552763 8.086762-11.105526 11.568256-16.680324 0.352556-19.148218 1.454295-18.00241-4.010329-27.102771-14.63109-0.264417-15.071785 23.378895-16.548115 41.381305C431.643814 354.208985 435.015134 355.398863 437.240646 356.566706L437.240646 356.566706zM400.42054 337.859183c4.627302-6.676536 9.23257-12.229299 12.714064-17.804097-1.542434-38.340506-16.592184-17.209158-22.695817 8.593562C393.788073 330.984334 397.093289 334.421758 400.42054 337.859183L400.42054 337.859183zM629.472011 318.446548c6.874849-5.508693 12.581856-9.915648 18.288862-14.300568 26.397659-25.428129 31.553796-61.388879 15.071785-84.216905-2.225512-1.167843-4.473059-1.211913-7.866414-1.278017-3.481494 5.574798-6.962988 11.149595-11.590291 17.826132 0.771217-41.667757 2.820451-30.363918-33.030126-42.306765-8.902049-5.795145-17.826132-10.466517-26.750215-15.137889-5.618867-1.233947-11.237735-1.344121-16.878637-1.454295-0.881391 47.308659-10.334309 71.921501-70.02651 70.819762-5.574798-2.357721-11.17163-4.715442-16.768463-7.073162-28.733345-29.835083-35.872611-70.511275-10.642796-94.837665 5.707006-4.406955 11.414013-7.668101 17.098984-10.951282 12.449647-3.150973 24.877259-5.178172 36.181098-7.205371 5.618867 1.233947 23.533138 7.205371 28.116371 2.776381 0.705113-38.296436-38.803236-33.382682-69.10105-40.720262-6.764675-0.132209-14.675159 0.859356-22.563608 1.828886-35.145464 11.744534-59.009124 22.563608-73.4419 71.877431 0.903426 12.405578 0.661043 25.934928 0.396626 39.442245 4.318816 10.224135 8.637631 20.44827 11.788604 31.774143 14.322603 18.288862 42.086418 39.089688 59.978654 46.162851 35.938716 6.301945 71.04011-3.195042 96.027543-13.992081 6.83078-4.38492 13.66156-7.624032 19.346531-10.907213 1.762782 27.080737 1.520399 39.464279 24.83319 57.907385C609.244089 315.824409 619.35805 317.124461 629.472011 318.446548L629.472011 318.446548zM367.103962 311.329316c15.953176-9.849544 25.141677-18.685488 16.283698-27.873989-6.764675-0.132209-27.080737 1.762782-27.499397 24.28232C360.383356 308.94956 363.754676 310.139438 367.103962 311.329316L367.103962 311.329316zM339.406252 286.033396c7.998623-5.486659 14.829403-9.871579 21.660182-14.234464 1.211913-4.495094 1.300052-8.990188 1.366156-12.361508-9.012222-0.176278-12.295404-4.737476-29.504562 11.854708-0.066104 3.37132-0.132209 6.764675-1.322086 10.113961C334.977262 282.573936 337.202774 283.741779 339.406252 286.033396L339.406252 286.033396zM324.224293 254.215183c9.100361-4.34085 18.200723-8.681701 26.133241-11.920812 0.088139-4.495094 0.154243-7.888449 0.220348-11.259769-6.764675-0.132209-38.186263-6.346015-38.671028 19.566879C316.379913 251.813392 320.875007 253.025305 324.224293 254.215183L324.224293 254.215183zM639.674111 254.413496c0.088139-4.495094 0.176278-9.012222-0.903426-12.405578-4.495094-0.088139-9.012222-0.176278-13.507316-0.242383C630.838167 245.24703 635.267156 249.830263 639.674111 254.413496L639.674111 254.413496zM523.793237 245.511447c37.569289-20.712687 31.928387-20.822861 35.806507-47.793424-1.079704-2.269582-2.181443-3.41539-3.283181-4.561198-2.247547-0.04407-4.495094-0.088139-6.764675-0.132209-9.364779 18.97194-9.320709 16.724393-33.184369 27.543467-3.349286-1.189878-7.844379-2.40179-12.339473-2.467895 0.04407-2.247547 0.088139-4.517129 0.132209-6.764675 9.188501-8.835944 4.84765-17.936306 4.84765-17.936306-5.640902-0.110174-6.720606-2.379756-21.483904 4.120503-3.37132-0.066104-9.871579-14.829403-9.871579-14.829403 11.920812-34.704768 29.835083-28.733345 48.983302-28.380788 0.066104-3.37132 0.132209-6.764675 0.198313-10.135996-29.107936-9.541057-45.920468-14.366672-66.963677 26.926493 0.903426 12.405578 0.661043 24.78912 0.440695 37.194698 4.252711 13.595455 23.180582 26.353589 35.409881 34.462386C505.812862 242.933379 514.825084 244.211395 523.793237 245.511447L523.793237 245.511447zM328.36683 212.591495c4.561198-2.181443 9.100361-4.34085 13.61749-5.376485 0.066104-3.37132 0.132209-6.764675 0.198313-10.135996-10.113961-1.322086-20.249957-1.498365-30.385953-1.696678-2.291616 2.203477-4.649337 7.80031-3.613703 12.317438C314.925618 208.977792 321.646224 210.21174 328.36683 212.591495L328.36683 212.591495zM335.814584 175.551041c5.729041-5.530728 2.489929-12.339473 2.489929-12.339473-10.047857-4.693407-17.826132-11.590291-37.128593-2.95266-0.04407 2.247547-0.088139 4.517129-0.132209 6.764675C316.666365 175.198485 323.453076 174.20692 335.814584 175.551041L335.814584 175.551041zM352.23049 140.934412c1.211913-4.473059 1.278017-7.866414 1.344121-11.237735-14.366672-14.917542-7.712171-9.166466-33.55896-13.022551-0.066104 3.37132-0.132209 6.764675-1.322086 10.113961 5.574798 3.481494 11.105526 8.086762 16.658289 12.714064C340.992755 139.612325 346.633657 139.700464 352.23049 140.934412L352.23049 140.934412zM371.907543 113.126527c1.145808-1.101739 2.291616-2.203477 3.41539-2.181443 0.286452-15.776898-14.146325-27.301084-31.046996-27.609571-0.04407 2.247547-0.110174 5.640902-1.300052 8.990188C349.586317 101.448097 359.524 111.782406 371.907543 113.126527L371.907543 113.126527zM394.867777 89.901876c2.269582-1.079704 3.41539-2.181443 4.561198-3.305216 0.286452-15.776898-4.032364-25.978998-23.180582-26.353589-0.04407 2.247547-0.110174 5.640902-1.300052 8.990188C380.435 78.355655 390.394718 87.56619 394.867777 89.901876L394.867777 89.901876zM431.181084 75.93183c8.108797-12.229299-0.749182-20.294026-6.235841-28.270614-2.247547-0.04407-5.640902 1.0136-9.056292 2.071269C415.734707 57.620933 417.673767 74.543639 431.181084 75.93183L431.181084 75.93183zM463.395923 39.354106c-2.247547-0.04407-4.495094-0.088139-7.888449-0.154243-0.176278 9.012222-4.84765 17.936306 10.775004 26.111207C476.616787 55.373386 468.926651 45.083147 463.395923 39.354106z" fill="#0a83c2" p-id="2879"></path></svg>